<?xml version="1.0" encoding="UTF-8"?> <svg xmlns="http://www.w3.org/2000/svg" id="Ebene_6" data-name="Ebene 6" viewBox="0 0 24 24"><title>Barrierearmut</title><defs><style> .cls-1 { fill: #fff; stroke-width: 0px; } </style></defs><path class="cls-1" d="m12,3.41c1.16,0,2.28.23,3.34.67,1.02.43,1.94,1.05,2.73,1.84.79.79,1.41,1.71,1.84,2.73.45,1.06.67,2.18.67,3.34s-.23,2.28-.67,3.34c-.43,1.02-1.05,1.94-1.84,2.73-.79.79-1.71,1.41-2.73,1.84-1.06.45-2.18.67-3.34.67s-2.28-.23-3.34-.67c-1.02-.43-1.94-1.05-2.73-1.84-.79-.79-1.41-1.71-1.84-2.73-.45-1.06-.67-2.18-.67-3.34s.23-2.28.67-3.34c.43-1.02,1.05-1.94,1.84-2.73.79-.79,1.71-1.41,2.73-1.84,1.06-.45,2.18-.67,3.34-.67m0-.73C6.86,2.69,2.69,6.86,2.69,12s4.17,9.31,9.31,9.31,9.31-4.17,9.31-9.31S17.14,2.69,12,2.69h0Zm-3.44,6.18c-.44-.19-.96.01-1.15.46s.01.96.46,1.15l.43.19c.63.27,1.28.47,1.95.59v1.82c0,.16-.03.31-.08.46l-1.04,3.13c-.15.46.09.95.55,1.11s.95-.09,1.11-.55l.89-2.66c.05-.14.17-.23.32-.23s.28.09.32.23l.89,2.66c.15.46.65.71,1.11.55s.71-.65.55-1.11l-1.04-3.13c-.05-.15-.08-.3-.08-.46v-1.82c.67-.13,1.32-.32,1.95-.59l.43-.19c.44-.19.65-.7.46-1.15s-.7-.65-1.15-.46l-.44.18c-.95.41-1.97.62-3.01.62s-2.06-.21-3.01-.62l-.43-.19h0Zm3.44-.36c.8,0,1.46-.65,1.46-1.46s-.65-1.46-1.46-1.46-1.46.65-1.46,1.46.65,1.46,1.46,1.46Z"></path></svg> 