<?xml version="1.0" encoding="UTF-8"?> <svg xmlns="http://www.w3.org/2000/svg" id="Ebene_6" data-name="Ebene 6" viewBox="0 0 24 24"><title>Gebärdensprache</title><defs><style> .cls-1 { fill: #fff; stroke-width: 0px; } </style></defs><path class="cls-1" d="m17.16,14.52c-1.09-.09-2.21-.19-3.32-.28-.72-.06-1.45-.12-2.17-.17-.17-.01-.4-.01-.43.23-.04.25.17.33.35.38,1.29.33,2.59.65,3.89.97.67.17,1.35.33,2.02.5.46.12.66.46.52.92-.09.29-.31.4-.59.37-.46-.06-.92-.13-1.37-.22-1.51-.29-3.02-.58-4.54-.87-.1-.02-.21-.04-.3,0-.12.04-.28.12-.31.22-.04.12,0,.3.09.4.09.11.25.16.39.21,1.44.53,2.87,1.05,4.31,1.58.42.15.6.45.48.81-.1.33-.47.5-.87.38-1.54-.47-3.08-.95-4.62-1.43-.14-.04-.3-.11-.44-.09-.12.01-.27.11-.31.21-.04.08.01.26.09.34.11.11.26.18.4.26.95.49,1.91.97,2.85,1.47.15.08.31.27.35.44.07.33-.14.54-.47.48-.34-.06-.68-.18-1.01-.31-2.27-.91-4.54-1.84-6.81-2.75-1.5-.6-2.38-1.73-2.75-3.26-.35-1.47-.02-2.78,1.18-3.75.85-.69,1.76-1.31,2.67-1.93,1.22-.83,2.45-1.63,3.7-2.41.25-.16.58-.23.88-.25.36-.02.58.25.71.56.12.29.07.56-.18.76-.85.68-1.71,1.35-2.57,2.02-.25.2-.51.4-.77.59-.18.13-.34.29-.26.49.07.17.24.37.41.42.38.12.78.17,1.18.23,1.51.22,3.01.43,4.52.64,1.07.15,2.13.31,3.2.45.48.06.76.32.75.73-.02.43-.33.68-.85.67Zm-4.46-8.04c.14.14.24.32.37.48.55.64.29,1.41-.24,1.83-.69.54-1.37,1.1-2.05,1.66-.11.09-.16.24-.24.36.13.07.24.19.38.21.64.1,1.28.17,1.92.25,1.15.14,2.3.27,3.45.41.28.03.53.02.78-.13.79-.44,1.6-.85,2.4-1.28.56-.3,1.13-.59,1.68-.9.37-.21.47-.62.28-.96-.2-.35-.63-.49-.99-.32-.72.34-1.43.69-2.15,1.03-.87.42-1.75.83-2.62,1.24-.19.09-.38.1-.5-.11-.11-.21-.01-.36.17-.48.07-.04.14-.09.2-.13,1.75-1.14,3.5-2.28,5.25-3.42.51-.33.59-.87.23-1.42-.2-.3-.63-.5-1.19-.11-1.73,1.17-3.48,2.32-5.22,3.48-.19.13-.37.16-.55,0-.2-.17-.17-.41.07-.61,1.32-1.1,2.64-2.19,3.96-3.28.45-.37.52-.79.21-1.21-.28-.38-.66-.42-1.14-.11-.77.5-1.54,1-2.31,1.49-.87.56-1.74,1.13-2.62,1.7.17.13.33.23.46.36Zm-4.07.24c.06-.04.09-.16.09-.23-.07-1.02-.15-2.04-.24-3.07-.03-.38-.22-.65-.47-.71-.33-.08-.69.04-.87.34-.12.2-.19.44-.24.67-.19.98-.37,1.95-.53,2.93-.09.54-.14,1.09-.22,1.7.87-.58,1.67-1.11,2.47-1.65Z"></path></svg> 