<?xml version="1.0" encoding="UTF-8"?> <svg xmlns="http://www.w3.org/2000/svg" xmlns:xlink="http://www.w3.org/1999/xlink" viewBox="0 0 128 140"><title>Leichte Sprache</title><defs><style> .cls-1 { clip-path: url(#clippath); } .cls-2, .cls-3 { fill: none; } .cls-2, .cls-4, .cls-5 { stroke-width: 0px; } .cls-3 { stroke: #f5698f; stroke-width: 2.3px; } .cls-6 { clip-path: url(#clippath-1); } .cls-7 { clip-path: url(#clippath-2); } .cls-8 { opacity: .4; } .cls-4 { fill: #551c77; } .cls-5 { fill: #fff; } </style><clipPath id="clippath"><rect class="cls-2" x="-1940" y="6" width="1920" height="1079"></rect></clipPath><clipPath id="clippath-1"><rect class="cls-2" x="-1673.91" y="-1792.98" width="2316.99" height="4032.64" transform="translate(-537.6 -337.95) rotate(-68.84)"></rect></clipPath><clipPath id="clippath-2"><rect class="cls-2" x="-1673.93" y="-1792.99" width="2317" height="4032.67" transform="translate(-537.61 -337.96) rotate(-68.84)"></rect></clipPath></defs><g id="PPTX_Vorlage" data-name="PPTX Vorlage"><g class="cls-1"><g id="Artwork_8" data-name="Artwork 8"><g class="cls-6"><g class="cls-7"><path class="cls-4" d="m1351.7,984.85C1749.54,5.64,715.08-467.93-112.38-697.51c-1165.56-1119.79-2494.51-135.85-2492.5,1023.02,1.64,927.12,2008.28,397.94,2524.67,545.16,487.84,182.81,1034.04,1093.45,1431.9,114.18"></path></g></g></g><g class="cls-8"><g><path class="cls-3" d="m150.98-204.69c-179.86-87.56-348.85-110.91-377.45-52.17C-255.07-198.11-132.45-79.5,47.41,8.05c179.86,87.56,348.85,110.91,377.45,52.17C453.46,1.47,330.83-117.13,150.98-204.69Z"></path><path class="cls-3" d="m135.06-190.01c-179.86-87.56-348.85-110.91-377.45-52.17C-270.98-183.42-148.36-64.82,31.5,22.74c179.86,87.56,348.85,110.91,377.45,52.16,28.6-58.74-94.02-177.34-273.88-264.9Z"></path><path class="cls-3" d="m119.15-175.32c-179.86-87.56-348.85-110.91-377.45-52.17C-286.89-168.74-164.27-50.13,15.59,37.42c179.86,87.56,348.85,110.91,377.45,52.16,28.6-58.75-94.02-177.35-273.88-264.9Z"></path><path class="cls-3" d="m103.25-160.64c-179.86-87.56-348.85-110.91-377.45-52.17C-302.8-154.05-180.18-35.45-.32,52.1c179.86,87.56,348.85,110.91,377.45,52.16,28.6-58.74-94.02-177.34-273.88-264.9Z"></path><path class="cls-3" d="m87.33-145.96c-179.86-87.56-348.85-110.91-377.45-52.16C-318.71-139.37-196.09-20.77-16.23,66.79c179.86,87.56,348.85,110.91,377.45,52.17,28.6-58.75-94.03-177.35-273.89-264.91Z"></path><path class="cls-3" d="m71.42-131.27c-179.86-87.56-348.85-110.91-377.45-52.16C-334.62-124.69-212-6.08-32.14,81.47c179.86,87.56,348.85,110.91,377.45,52.16,28.6-58.74-94.02-177.35-273.88-264.9Z"></path><path class="cls-3" d="m55.51-116.59c-179.86-87.56-348.85-110.91-377.45-52.16C-350.53-110.01-227.91,8.59-48.05,96.15c179.86,87.56,348.85,110.91,377.45,52.17C357.99,89.56,235.37-29.03,55.51-116.59Z"></path><path class="cls-3" d="m39.6-101.9c-179.86-87.56-348.85-110.91-377.45-52.17C-366.44-95.32-243.82,23.28-63.96,110.84c179.86,87.56,348.85,110.91,377.45,52.17C342.08,104.25,219.46-14.35,39.6-101.9Z"></path><path class="cls-3" d="m23.69-87.22c-179.86-87.56-348.85-110.91-377.45-52.16-28.6,58.75,94.03,177.35,273.88,264.9,179.86,87.56,348.85,110.91,377.45,52.16C326.17,118.94,203.55.34,23.69-87.22Z"></path><path class="cls-3" d="m7.78-72.54c-179.86-87.55-348.85-110.91-377.45-52.16-28.6,58.75,94.02,177.35,273.88,264.91,179.86,87.56,348.85,110.91,377.45,52.17C310.26,133.62,187.64,15.02,7.78-72.54Z"></path><path class="cls-3" d="m-8.13-57.85c-179.86-87.56-348.85-110.91-377.45-52.17-28.6,58.75,94.02,177.36,273.89,264.91,179.86,87.56,348.85,110.91,377.44,52.16C294.35,148.31,171.73,29.7-8.13-57.85Z"></path><path class="cls-3" d="m-24.04-43.17c-179.86-87.56-348.85-110.91-377.45-52.17-28.6,58.75,94.02,177.35,273.88,264.91,179.86,87.55,348.85,110.91,377.45,52.16C278.44,162.99,155.82,44.39-24.04-43.17Z"></path><path class="cls-3" d="m-39.95-28.49c-179.86-87.56-348.85-110.91-377.45-52.16-28.6,58.75,94.02,177.35,273.88,264.91,179.86,87.56,348.85,110.91,377.45,52.16C262.53,177.67,139.91,59.07-39.95-28.49Z"></path><path class="cls-3" d="m-55.86-13.8c-179.86-87.56-348.85-110.91-377.45-52.16-28.6,58.74,94.02,177.35,273.88,264.9,179.86,87.56,348.85,110.91,377.45,52.16C246.62,192.35,124,73.75-55.86-13.8Z"></path><path class="cls-3" d="m-71.77.88c-179.86-87.56-348.85-110.91-377.45-52.17-28.6,58.75,94.03,177.35,273.88,264.91,179.86,87.56,348.85,110.91,377.45,52.16C230.71,207.04,108.09,88.44-71.77.88Z"></path><path class="cls-3" d="m-87.68,15.57c-179.86-87.56-348.85-110.91-377.45-52.16-28.6,58.75,94.02,177.35,273.88,264.9,179.86,87.56,348.85,110.91,377.45,52.17C214.8,221.72,92.18,103.12-87.68,15.57Z"></path></g><g><path class="cls-3" d="m196.36,182.92C283.92,3.06,307.28-165.93,248.53-194.53,189.78-223.13,71.18-100.5-16.38,79.35c-87.56,179.86-110.91,348.85-52.17,377.45,58.75,28.6,177.35-94.02,264.91-273.88Z"></path><path class="cls-3" d="m181.68,167.01c87.56-179.86,110.91-348.85,52.16-377.45C175.09-239.04,56.49-116.42-31.06,63.45c-87.56,179.86-110.91,348.85-52.17,377.45,58.75,28.6,177.35-94.02,264.91-273.88Z"></path><path class="cls-3" d="m167,151.1c87.56-179.86,110.91-348.85,52.16-377.45C160.41-254.95,41.81-132.32-45.75,47.53c-87.56,179.86-110.91,348.85-52.16,377.45,58.75,28.6,177.35-94.02,264.9-273.88Z"></path><path class="cls-3" d="m152.31,135.19c87.56-179.86,110.91-348.85,52.16-377.45C145.73-270.86,27.12-148.24-60.43,31.62c-87.56,179.86-110.91,348.85-52.17,377.45,58.75,28.6,177.35-94.02,264.91-273.88Z"></path><path class="cls-3" d="m137.63,119.28c87.56-179.86,110.91-348.85,52.16-377.45C131.04-286.77,12.44-164.15-75.11,15.71c-87.56,179.86-110.91,348.84-52.17,377.44,58.75,28.6,177.35-94.02,264.91-273.88Z"></path><path class="cls-3" d="m122.95,103.37c87.56-179.86,110.91-348.85,52.16-377.45C116.36-302.68-2.24-180.06-89.8-.2c-87.56,179.86-110.91,348.85-52.16,377.45,58.75,28.6,177.35-94.02,264.91-273.88Z"></path><path class="cls-3" d="m108.26,87.46c87.56-179.86,110.91-348.85,52.16-377.45C101.68-318.59-16.93-195.97-104.48-16.11c-87.56,179.86-110.91,348.85-52.17,377.45,58.75,28.6,177.35-94.02,264.91-273.88Z"></path><path class="cls-3" d="m93.58,71.55c87.56-179.86,110.91-348.85,52.17-377.45C86.99-334.5-31.61-211.88-119.17-32.02c-87.56,179.86-110.91,348.85-52.16,377.45C-112.58,374.03,6.02,251.41,93.58,71.55Z"></path><path class="cls-3" d="m78.89,55.64c87.56-179.86,110.91-348.85,52.16-377.45-58.75-28.6-177.35,94.03-264.91,273.89-87.56,179.86-110.91,348.85-52.16,377.45C-127.26,358.11-8.66,235.5,78.89,55.64Z"></path><path class="cls-3" d="m64.21,39.72c87.55-179.86,110.91-348.85,52.16-377.44C57.63-366.32-60.98-243.7-148.53-63.84c-87.56,179.86-110.91,348.85-52.17,377.45C-141.95,342.2-23.34,219.59,64.21,39.72Z"></path><path class="cls-3" d="m49.53,23.81c87.56-179.86,110.91-348.85,52.17-377.45-58.75-28.6-177.36,94.02-264.91,273.88-87.56,179.86-110.91,348.85-52.16,377.45C-156.63,326.29-38.03,203.67,49.53,23.81Z"></path><path class="cls-3" d="m34.84,7.9c87.56-179.86,110.91-348.85,52.16-377.44-58.75-28.6-177.35,94.02-264.91,273.88-87.55,179.86-110.91,348.85-52.16,377.45C-171.32,310.38-52.71,187.76,34.84,7.9Z"></path><path class="cls-3" d="m20.16-8.01c87.56-179.86,110.91-348.85,52.16-377.45-58.75-28.6-177.35,94.03-264.91,273.88-87.56,179.86-110.91,348.85-52.16,377.45C-186,294.47-67.4,171.85,20.16-8.01Z"></path><path class="cls-3" d="m5.48-23.92c87.56-179.86,110.91-348.85,52.17-377.45C-1.1-429.96-119.71-307.34-207.27-127.48c-87.56,179.86-110.91,348.85-52.16,377.45C-200.68,278.56-82.08,155.94,5.48-23.92Z"></path><path class="cls-3" d="m-9.21-39.83c87.56-179.86,110.91-348.85,52.16-377.45-58.75-28.6-177.35,94.02-264.91,273.88-87.56,179.86-110.91,348.85-52.16,377.45C-215.37,262.65-96.77,140.03-9.21-39.83Z"></path><path class="cls-3" d="m-23.89-55.74C63.67-235.6,87.02-404.59,28.27-433.19c-58.75-28.6-177.35,94.03-264.91,273.88-87.56,179.86-110.91,348.85-52.16,377.45C-230.05,246.74-111.45,124.12-23.89-55.74Z"></path></g></g></g></g><g id="Icons"><g id="Pulpo"><path class="cls-5" d="m82.75,40.75c0-10.36-8.39-18.75-18.75-18.75s-18.75,8.39-18.75,18.75,8.39,18.75,18.75,18.75,18.75-8.39,18.75-18.75Zm-21.13,29.34c-11.59-7.09-32.36-10.04-41.8-10.58-3.17-.18-5.82,2.24-5.82,5.29v43.51c0,2.8,2.26,5.13,5.17,5.28,8.53.45,27.78,3.09,39.7,9.09,1.83.92,4-.33,4-2.32v-48.04c0-.91-.45-1.75-1.25-2.24Zm46.56-10.58c-9.44.54-30.21,2.49-41.8,9.58-.8.49-1.25,1.36-1.25,2.27v48.01c0,1.99,2.18,3.25,4.01,2.32,11.92-6,31.16-7.64,39.69-8.09,2.91-.15,5.17-2.49,5.17-5.28v-43.52c0-3.05-2.65-5.47-5.82-5.29Zm-28.68,22.49c-1.04,0-2.01-.66-2.37-1.69-.45-1.31.25-2.73,1.56-3.17,5.61-1.91,11.97-4.08,22.56-5.12,1.38-.13,2.6.87,2.73,2.24s-.87,2.6-2.24,2.73c-10.01.98-16.08,3.05-21.44,4.88-.27.09-.54.13-.81.13Zm0,13.15c-.98,0-1.9-.58-2.31-1.53-.54-1.27.06-2.74,1.34-3.27,9.78-4.11,21.35-4.93,25.88-5.1,1.37-.06,2.54,1.03,2.59,2.41.05,1.38-1.03,2.54-2.41,2.59-8.85.32-17.87,2.08-24.12,4.71-.32.13-.64.2-.97.2Zm1,14c-.99,0-1.92-.59-2.32-1.56-.52-1.28.1-2.74,1.38-3.26,6.81-2.76,16.16-4.75,23.83-5.08,1.38-.03,2.55,1.01,2.61,2.39.06,1.38-1.01,2.55-2.39,2.61-7.15.31-15.85,2.16-22.17,4.72-.31.12-.63.18-.94.18Zm-46.72-3.4c-.07,0-.15,0-.22,0-1.03-.09-1.89-.8-2.18-1.79-1.27-4.34-3.3-10.34-6.3-12.4-1.14-.78-1.42-2.34-.64-3.48.78-1.14,2.34-1.42,3.48-.64,2.52,1.73,4.53,4.7,6.4,9.54,3.67-6.33,8.24-12.5,13.61-18.41.93-1.02,2.51-1.1,3.53-.17,1.02.93,1.1,2.51.17,3.53-6.51,7.17-11.77,14.71-15.61,22.43-.43.85-1.3,1.39-2.24,1.39Z"></path></g></g></svg> 