<svg xmlns="http://www.w3.org/2000/svg" xmlns:xlink="http://www.w3.org/1999/xlink" version="1.1" id="SKF_Logo_ohne_UZ" x="0px" y="0px" viewBox="0 0 283.5 245.2" style="enable-background:new 0 0 283.5 245.2;" xml:space="preserve">
<style type="text/css">
	.st0{fill:#006455;}
	.st1{fill:#5FB469;}
	.st2{fill:#FFFFFF;}
</style>
<g>
	<polygon class="st0" points="62.9,211.1 242.3,203.3 240.6,163.6 53.6,171.8 54.7,196.9  "></polygon>
	<polygon class="st1" points="162.4,132.6 150,121.2 29.5,139.2 35.4,178.5 166.3,158.9  "></polygon>
	<g>
		<path class="st2" d="M80.2,192.9l-8.3,0.4l0.5,10.8l-5.3,0.2l-1.2-26.4l14.6-0.6l0.2,4.4l-9.3,0.4l0.3,6.8l8.3-0.4L80.2,192.9z"></path>
		<path class="st2" d="M103.2,191.9c0.2,3.5-0.6,6.3-2.2,8.4c-1.6,2-3.9,3.1-6.8,3.2c-3,0.1-5.3-0.7-7.1-2.6s-2.8-4.6-2.9-8    l-0.2-4.5c-0.2-3.6,0.6-6.5,2.2-8.6c1.6-2.1,3.9-3.2,6.9-3.4c2.9-0.1,5.3,0.8,7.1,2.7s2.8,4.7,2.9,8.3L103.2,191.9z M97.7,187.7    c-0.1-2.4-0.5-4.1-1.2-5.3s-1.8-1.7-3.2-1.6c-1.4,0.1-2.4,0.7-3.1,1.8c-0.6,1.1-0.9,2.9-0.8,5.1l0.2,4.7c0.1,2.3,0.5,4,1.3,5.1    c0.7,1.1,1.8,1.6,3.3,1.5c1.4-0.1,2.4-0.6,3-1.7s0.9-2.8,0.8-5L97.7,187.7z"></path>
		<path class="st2" d="M115.3,192.5l-2.7,0.1l0.4,9.6l-5.3,0.2l-1.2-26.4l8.5-0.4c2.7-0.1,4.8,0.5,6.3,1.8c1.5,1.3,2.3,3.3,2.4,5.8    c0.2,3.5-1,6-3.5,7.5l5.1,10.6l0,0.2l-5.7,0.2L115.3,192.5z M112.5,188.2l3-0.1c1.1-0.1,1.8-0.4,2.3-1.2s0.7-1.7,0.7-2.9    c-0.1-2.6-1.2-3.9-3.3-3.8l-3.1,0.1L112.5,188.2z"></path>
		<path class="st2" d="M139.7,194.2c-0.1-1.1-0.4-1.9-0.9-2.4s-1.6-1.1-3.1-1.6c-2.7-0.9-4.6-2-5.9-3.3s-1.9-2.9-1.9-4.7    c-0.1-2.2,0.6-4.1,2.1-5.5s3.5-2.2,5.9-2.3c1.6-0.1,3.1,0.2,4.4,0.8c1.3,0.6,2.3,1.6,3.1,2.8c0.7,1.2,1.1,2.6,1.2,4.2l-5.3,0.2    c-0.1-1.2-0.4-2.2-0.9-2.8s-1.3-0.9-2.3-0.9c-0.9,0-1.6,0.4-2.1,0.9c-0.5,0.6-0.7,1.3-0.7,2.3c0,0.7,0.4,1.4,1,1.9    s1.7,1.1,3.2,1.7c2.6,0.8,4.5,1.9,5.8,3.2c1.2,1.3,1.9,3,2,5.1c0.1,2.3-0.6,4.1-2,5.5s-3.4,2.1-5.9,2.2c-1.7,0.1-3.3-0.2-4.7-0.9    c-1.4-0.6-2.6-1.6-3.4-2.9c-0.9-1.3-1.3-2.8-1.4-4.6l5.4-0.2c0.1,1.5,0.4,2.6,1,3.3s1.6,1,2.9,0.9    C138.9,197.2,139.8,196.2,139.7,194.2z"></path>
		<path class="st2" d="M166.8,191.1c0,3-0.8,5.3-2.2,6.9s-3.7,2.5-6.5,2.6c-3,0.1-5.3-0.8-7-2.6s-2.6-4.7-2.8-8.3l-0.2-4.4    c-0.2-3.6,0.5-6.5,2.1-8.5c1.6-2,3.8-3.1,6.7-3.2c2.9-0.1,5.1,0.6,6.7,2.1c1.6,1.5,2.5,3.8,2.9,6.8l-5.4,0.2    c-0.1-1.9-0.5-3.1-1-3.8s-1.5-1-2.9-0.9c-1.4,0.1-2.4,0.6-3,1.6s-0.8,2.7-0.7,5l0.2,5c0.1,2.6,0.5,4.4,1.1,5.4    c0.6,0.9,1.7,1.4,3.1,1.3c1.4-0.1,2.4-0.4,2.9-1.1c0.5-0.7,0.8-2,0.8-3.8L166.8,191.1z"></path>
		<path class="st2" d="M189.4,199l-5.3,0.2l-0.5-11.3l-7.9,0.3l0.5,11.3l-5.3,0.2l-1.1-26.4l5.3-0.2l0.5,10.7l7.9-0.3l-0.5-10.7    l5.3-0.2L189.4,199z"></path>
		<path class="st2" d="M207.2,186.8l-8.3,0.4l0.3,7l9.8-0.4l0.2,4.4l-15.2,0.7l-1.1-26.4l15.1-0.7l0.2,4.4l-9.8,0.4l0.3,6.2l8.3-0.4    L207.2,186.8z"></path>
		<path class="st2" d="M231.1,197.2l-5.3,0.2l-8.6-17l0.8,17.3l-5.3,0.2l-1.1-26.4l5.3-0.2l8.6,17l-0.8-17.4l5.3-0.2L231.1,197.2z"></path>
	</g>
	<g>
		<path class="st2" d="M50.9,159.1l-1.7,2.9l1.1,7.5l-5.3,0.8l-3.9-26.2l5.3-0.8l1.7,11.4l1.2-3.1l3.6-9.3l6.5-1l-5.8,12.6l9.8,13.5    l-6.3,0.9L50.9,159.1z"></path>
		<path class="st2" d="M71.6,166.4l-5.3,0.8L62.4,141l5.3-0.8L71.6,166.4z"></path>
		<path class="st2" d="M94.7,162.9l-5.3,0.8l-10.3-16l2.6,17.2l-5.3,0.8l-3.9-26.2l5.3-0.8l10.3,16l-2.6-17.2l5.3-0.8L94.7,162.9z"></path>
		<path class="st2" d="M99.3,162.2l-3.9-26.2l6.9-1c3.1-0.5,5.6,0.1,7.7,1.8c2.1,1.7,3.4,4.2,4,7.6l0.6,4.2c0.5,3.4,0,6.3-1.5,8.5    c-1.5,2.2-3.9,3.6-7.1,4.1L99.3,162.2z M101.3,139.7l2.6,17.4l1.6-0.2c1.8-0.3,2.9-0.9,3.5-1.9s0.7-2.7,0.4-5l-0.7-4.5    c-0.4-2.4-1-4.1-1.8-5s-2.1-1.2-3.7-1L101.3,139.7z"></path>
		<path class="st2" d="M131.6,145.8l-8.2,1.2l1,6.9l9.7-1.5l0.7,4.4l-15,2.2l-3.9-26.2l15-2.2l0.7,4.4l-9.7,1.4l0.9,6.2l8.2-1.2    L131.6,145.8z"></path>
		<path class="st2" d="M144.7,145.7l-2.6,0.4l1.4,9.6l-5.3,0.8l-3.9-26.2l8.4-1.3c2.6-0.4,4.8,0,6.4,1.1c1.6,1.2,2.7,3,3,5.5    c0.5,3.5-0.4,6.1-2.7,7.9l6.2,10l0,0.2l-5.7,0.9L144.7,145.7z M141.5,141.7l3-0.4c1.1-0.2,1.8-0.6,2.2-1.4    c0.4-0.8,0.6-1.8,0.4-2.9c-0.4-2.6-1.6-3.8-3.7-3.5l-3.1,0.5L141.5,141.7z"></path>
	</g>
	<g>
		<path class="st1" d="M34.9,130c-0.1-0.4-0.2-0.8-0.5-1s-0.7-0.4-1.3-0.5c-1.1-0.2-2-0.6-2.6-1.1s-0.9-1.1-1-1.9    c-0.1-0.9,0.1-1.7,0.7-2.4c0.6-0.7,1.4-1.1,2.4-1.2c0.7-0.1,1.3-0.1,1.8,0.2c0.6,0.2,1,0.5,1.4,1c0.3,0.5,0.6,1,0.7,1.7l-2.2,0.3    c-0.1-0.5-0.2-0.9-0.5-1.1c-0.2-0.2-0.6-0.3-1-0.3c-0.4,0.1-0.7,0.2-0.9,0.5c-0.2,0.3-0.2,0.6-0.2,1c0,0.3,0.2,0.6,0.5,0.8    s0.7,0.4,1.4,0.6c1.1,0.2,2,0.6,2.5,1.1c0.6,0.5,0.9,1.2,1,2c0.1,0.9-0.1,1.7-0.6,2.4c-0.5,0.6-1.3,1-2.4,1.2    c-0.7,0.1-1.4,0.1-2-0.1c-0.6-0.2-1.1-0.6-1.5-1c-0.4-0.5-0.6-1.1-0.8-1.8l2.2-0.3c0.1,0.6,0.3,1.1,0.5,1.3s0.7,0.3,1.3,0.2    C34.7,131.3,35,130.8,34.9,130z"></path>
		<path class="st1" d="M45,122.1l-2.7,0.4l1.2,9.1l-2.2,0.3l-1.2-9.1l-2.7,0.4l-0.2-1.8l7.6-1.1L45,122.1z"></path>
		<path class="st1" d="M49.9,130.7l-2.2,0.3l-1.4-10.9l2.2-0.3L49.9,130.7z"></path>
		<path class="st1" d="M57,125.1l-3.4,0.5l0.6,4.5l-2.2,0.3l-1.4-10.9l6.1-0.9l0.2,1.8L53,121l0.4,2.8l3.4-0.5L57,125.1z"></path>
		<path class="st1" d="M65.6,119.1l-2.7,0.4l1.2,9.1l-2.2,0.3l-1.2-9.1l-2.7,0.4l-0.2-1.8l7.6-1.1L65.6,119.1z"></path>
		<path class="st1" d="M73.9,115.9l1,7.6c0.1,1.1-0.1,2.1-0.6,2.8c-0.5,0.7-1.4,1.1-2.5,1.3c-1.2,0.2-2.1,0-2.8-0.5    c-0.7-0.5-1.1-1.4-1.3-2.5l-1-7.5l2.2-0.3l1,7.5c0.1,0.6,0.2,1.1,0.5,1.3c0.2,0.2,0.6,0.3,1.1,0.2c0.5-0.1,0.9-0.3,1-0.6    c0.2-0.3,0.2-0.7,0.1-1.3l-1-7.6L73.9,115.9z"></path>
		<path class="st1" d="M84.9,125.4l-2.2,0.3l-4.2-6.7l0.9,7.2l-2.2,0.3l-1.4-10.9l2.2-0.3l4.2,6.7l-0.9-7.2l2.2-0.3L84.9,125.4z"></path>
		<path class="st1" d="M94.2,122.8c-0.4,0.5-0.8,0.9-1.4,1.3c-0.6,0.3-1.2,0.5-2,0.7c-1.3,0.2-2.3-0.1-3.1-0.7s-1.3-1.8-1.5-3.2    l-0.3-2c-0.2-1.5,0-2.7,0.5-3.6c0.6-0.9,1.5-1.5,2.7-1.7c1.2-0.2,2.1,0,2.8,0.5s1.2,1.4,1.4,2.6l-2.2,0.3    c-0.2-0.7-0.4-1.1-0.6-1.4s-0.6-0.3-1.1-0.2c-0.6,0.1-1,0.4-1.2,0.8c-0.2,0.5-0.3,1.2-0.2,2.1l0.3,2c0.1,1,0.4,1.7,0.7,2.1    c0.4,0.4,0.9,0.6,1.6,0.5c0.4-0.1,0.8-0.2,1-0.4l0.2-0.2l-0.3-2l-1.6,0.2l-0.2-1.7l3.8-0.6L94.2,122.8z"></path>
	</g>
</g>
<g>
	<g>
		<path class="st1" d="M173.4,79.4c-0.2-0.9-0.8-1.6-1.7-1.7l-5.5,1l0,0c-4.2,0-6.2,2.7-6.2,6c0,1.6,0.7,3.6,1.4,5.5    c-0.2,1.1-0.8,3.1-1.3,4.5l-2.8-1.9c0.2-0.4,1.1-1.6,1.1-1.6c-9-6.4-11.8-8.5-18.7-7.7l-0.8-2.8c7.2-3.2,12.2-10.4,12.2-18.7    c0-1.4-0.2-2.8-0.4-4.1c1.3-9.3-3.8-16.3-10.2-19.5c2.4-1.4,5.1,1.8,8.3,1.9c3.3,0.1,5.8-1.1,6-2.2c0-0.1,0-0.2-0.1-0.2    c-2.4-1-4.7-5-6.5-6.5c-2.6-2.1-5.8-2.4-8.8-1c-2.5,1.2-4,3.6-4.6,6.1c-6.8-1.6-14.1,0.5-17.2,2.9c-1.6-2.9-4.6-5.3-8.3-5.3    c-3.6,0-6.6,1.8-8.2,5.1c-1.1,2.3-1.5,7.3-3.3,9.4c-0.1,0.1-0.1,0.2,0,0.2c0.7,0.9,3.7,1,7-0.7c3.5-1.8,4.5-7.3,8.7-5.3    c-5.7,3.7-8,16-3.1,22.8c1.5,8.1,7,14.3,15.6,16.3l-0.2,2.6c-4.1,1.4-11.9,4.7-14.3,8.3c-1.2,1.8-2.9,4.9-4.8,14.3    c0,0,1.2,0.8,2.8,1.4l-0.5,9.8c0,0.3,0.2,0.5,0.4,0.5l1.4-0.1c0,0,0,0,0,0c0,0,0,0,0,0c0.2,0,0.3-0.2,0.4-0.4l0.4-9.2    c2.3,0.4,6.3,0.4,8.1,0.2l-0.4,8.9l0,0l19-1l10.8-4l-1.2-7.8l5.9,1.3l0.1-2.3c0,0,7.7,3.8,9.2,3.8c1.5,0,2.1-1.3,2.6-2.5    c1.3-3.4,2.1-9.2,3.3-13c3.1-2.6,5.2-5.4,5.2-8.4C173.9,83.2,173.6,80.4,173.4,79.4z"></path>
		<path class="st0" d="M174.4,48.2C174.3,48.2,174.3,48.2,174.4,48.2c-7.3,0-13.1,5.9-13.2,13.2c0,5.7,3.7,9.9,6.9,11.6l-4.6,13.5    c0,0.2,0.1,0.4,0.3,0.5l3.7,1.3c0.2,0.1,0.5,0,0.6-0.3l0.4-1.2c0,0,2.4-7.3,2.5-7.3l1.7-5c0.7,0.1,4,0.5,7.4-1.2    c4.6-2.3,7.4-6.8,7.4-11.8C187.5,54.1,181.6,48.2,174.4,48.2z"></path>
		<path class="st2" d="M129.4,80.2c-9.4-0.5-17-8.2-17.4-17.6c-0.1-2.7,0.6-5.5,1.6-6.9c1,2.6,2.7,3.7,3.1,3.5    c4.6-2.6,9.9-6.3,20.4-6.6c3-0.1,4.9,0.6,6.1,0.9c0.2,0,0.4-0.1,0.4-0.3c0.3-1.5-0.5-4.6-0.5-4.6s5.6,4.4,5.6,13.4    C148.7,70.8,141.6,80.6,129.4,80.2z"></path>
		<path class="st1" d="M141.6,58.4c0.4,0.1,0.9-0.1,1.1-0.6c0.1-0.5-0.1-0.8-0.5-1.2c-0.5-0.4-1.1-0.7-1.7-0.9    c-0.6-0.2-1.2-0.2-1.9-0.1c-0.6,0.1-0.9,0.3-1.1,0.8c-0.1,0.5,0.2,1,0.6,1.1c0.6,0.2,1-0.2,1.9,0    C140.9,57.7,141.1,58.3,141.6,58.4z"></path>
		<path class="st1" d="M139.3,62.9c1.1,0,2.1-0.9,2.1-2s-0.9-2-2.1-2c-1.1,0-2.1,0.9-2.1,2S138.2,62.9,139.3,62.9z"></path>
		<path class="st1" d="M132.9,68.8c0.6-0.1,1.2-0.3,1.8-0.7c0.5-0.3,0.7-0.6,0.7-1.1c-0.1-0.5-0.5-0.8-1-0.8    c-0.6,0.1-0.8,0.6-1.7,0.7c-0.9,0.1-1.3-0.3-1.9-0.2c-0.4,0.1-0.8,0.5-0.7,1c0.1,0.5,0.4,0.7,0.9,0.9    C131.6,68.8,132.3,68.8,132.9,68.8z"></path>
		<path class="st1" d="M121.1,60.4c0.6-0.2,0.7-0.8,1.5-1.1c0.8-0.3,1.3,0,1.8-0.2c0.4-0.2,0.7-0.7,0.5-1.2    c-0.2-0.4-0.6-0.6-1.1-0.6c-0.7,0-1.4,0.1-1.9,0.3c-0.5,0.2-1.1,0.6-1.6,1.1c-0.4,0.4-0.6,0.8-0.4,1.2    C120.2,60.4,120.7,60.5,121.1,60.4z"></path>
		<path class="st1" d="M124.2,64.6c1.1,0,2.1-0.9,2.1-2s-0.9-2-2.1-2s-2.1,0.9-2.1,2S123,64.6,124.2,64.6z"></path>
		<path class="st1" d="M131.7,75.5c3.9,0,6.7-2.5,7.3-3.6c0.3-0.5,0.1-0.8-0.5-0.6c-1.6,0.5-3.2,0.8-5.8,0.8c-3.4,0-5.7-0.6-8.2-1.7    c-0.5-0.2-0.9-0.1-0.7,0.6C124.3,72.5,127.5,75.5,131.7,75.5z"></path>
		<path class="st2" d="M132.3,88c-1.9,0-3.6-0.5-4.8-1.3l0.3-4.4c3.5,0.4,6-0.1,8.8-0.9l1.3,4.4C136.6,87.1,134.6,88,132.3,88z"></path>
		<circle class="st2" cx="174.3" cy="61.4" r="10.2"></circle>
		<path class="st2" d="M169,79.8c-1.2,0.5-1.4,1.1-1.5,2.2c0,0-0.1,3.6-0.1,3.6c0.1,0.6,0.5,0.9,1.1,1.2v0l-0.4,1.2    c-0.1,0.2-0.3,0.4-0.6,0.3l-3.7-1.3c-0.2-0.1-0.3-0.3-0.3-0.5l1-3c0.1,0,1.8-0.3,1.7-2c0-0.6-0.6-0.7-0.8-0.7    c-1.8-0.2-3.4,1.7-3.4,3.6c0,1.8,1.3,4.6,1.3,5.6c0,0.9-1.2,5-2.1,6.8c-0.3,0.6-1.1,0.8-1.7,0.3L156,95c-1,2.3-1.7,4.7-2.1,7.1    c3,1.8,7.6,4.1,8.5,4.1c0.5,0,0.9-0.5,1.2-1.4c0.8-2.2,1.9-8.1,2.7-11c0.5-1.9,0.6-2.1,2-3.3c1.2-1,3.6-3.8,3.6-5.9    c0-1.2-0.4-4.1-0.5-4.6c0-0.2-0.1-0.3-0.3-0.4C170.5,79.1,169.4,79.7,169,79.8z"></path>
	</g>
	<path class="st2" d="M111.4,109.2l-0.4,9.2c0,0.2-0.2,0.3-0.4,0.4l8.4-0.4l0.4-8.9C117.7,109.6,113.7,109.6,111.4,109.2z"></path>
</g>
<g>
	<path class="st1" d="M239.1,95.5c-0.2-4.9-3.6-6.8-5.2-7.4c1.6-5.8-3.6-12.3-11.2-10.4c-1.8-3.7-8.2-6.9-13-1.2   c-6-4.3-12.3,0.5-12.5,5.5v0c-2.9-0.3-8.3,3.2-5.2,9.4c-4.5,3.9-2,11,0.2,12c-0.6,8.6,4.3,16.4,11.7,19.9l-0.9,3.2   c-1.8-0.1-4.1-0.1-6,0.6c-1.2,0.5-5.4,1.7-9.6,3.9c0.1,0.3,0.4,1,0.5,1.5c-1.9,0.9-2.9,1.7-4.1,2.2c-0.7-2.8-1.1-3.9-1.1-4.6   c0-1.3,1.7-2.1,2.2-4.2c0.3-1.2,0.6-2.7,0.6-3.7c-0.1-1.8-0.6-1.9-0.9-2c-2.1-1.6-5.1,1.7-7.6,2.2c-1.3,0.3-3,0.5-4.1,0.2   c-0.9-0.2-1.1,2.6-1.1,2.6c0.2,2.1,1.5,4,3,5.5c0.4,2.3,1.3,11.3,1.8,14.2c0.2,1.4,0.9,2.6,2.2,2.6c1.7,0,7-1.8,10.2-3   c0,0.4,0.2,1.5,0.2,1.5l3.6-0.9l-0.4,9.7l11.8,4.9l19.8-0.9l0,0l-0.4-8.3c3.1-0.1,5.4-0.5,7.9-1.3l0.4,8.8c0,0.1,0.1,0.4,0.4,0.4   c0,0,1.4-0.1,1.4-0.1c0.2,0,0.4-0.2,0.4-0.4l-0.5-9.4c1.2-0.4,1.8-0.8,1.8-0.8c-1.7-9.3-3.9-13.5-7.8-15.3   c-1.8-0.8-8.9-4.4-10.8-4.6l-0.2-3c3.4-0.7,6.5-2.2,9.2-4.5c3.2-2.7,5.4-6.2,6.5-10.2c2.4-0.1,4.6-2.4,5.2-5.5   c0.3-1.4,0.1-2.8-0.3-4C238.4,99.2,239.2,97.5,239.1,95.5z"></path>
	<path class="st2" d="M230.1,109.7c-1,3.5-2.9,6.6-5.8,9c-3.3,2.8-7.4,4.3-11.7,4.4c-1.9,0-3.6-0.3-4.6-0.5c-4.1-1-7.6-3.4-10.1-6.6   c-2.6-3.3-4-7.3-3.7-12.6c0.2-3.3,1.4-6.4,3.2-8.9c2.8,0.2,11.7,0,14.6-4.3c0,0,2.5,5.7,11.5,6c0,0.6,0.4,1.9,0.4,2   c1,2.9,3.6,5.1,6.8,5.3C230.8,104.2,230.8,107.3,230.1,109.7z"></path>
	<path class="st1" d="M219.8,98.9c-0.9-0.3-1.6-0.4-2.3-0.3c-0.6,0.1-0.9,0.2-1.1,0.7c-0.2,0.5,0.1,0.9,0.5,1.1   c0.6,0.2,1.1-0.2,2.3,0.3c1.3,0.4,1.4,1.1,1.9,1.2c0.4,0.2,0.9-0.1,1.1-0.5c0.1-0.5,0-0.8-0.4-1.2   C221.3,99.6,220.7,99.2,219.8,98.9z"></path>
	<path class="st1" d="M218.4,102.4c-1.1,0-2.1,0.9-2.1,2.1s0.9,2.1,2.1,2.1c1.1,0,2.1-0.9,2.1-2.1   C220.4,103.4,219.5,102.4,218.4,102.4z"></path>
	<path class="st1" d="M205.1,98.9c0.4-0.1,0.8-0.5,0.7-1c-0.1-0.5-0.4-0.7-1-0.8c-0.7-0.2-1.3-0.2-2.3-0.1c-1,0.2-1.6,0.5-2.2,0.8   c-0.5,0.3-0.7,0.6-0.6,1.1c0.1,0.5,0.5,0.8,1,0.7c0.6-0.1,0.8-0.7,2.1-0.9C204.1,98.5,204.5,99,205.1,98.9z"></path>
	<circle class="st1" cx="203.1" cy="102.4" r="2.1"></circle>
	<path class="st1" d="M207.2,109.3c0.6,0.4,1.2,0.6,1.8,0.7c0.6,0.1,1.2,0.1,1.9-0.1c0.5-0.2,0.9-0.4,0.9-0.8c0.1-0.5-0.3-0.9-0.7-1   c-0.6-0.1-1,0.3-1.9,0.2c-0.9-0.2-1.1-0.7-1.7-0.8c-0.4-0.1-0.9,0.2-1,0.7C206.5,108.7,206.7,109,207.2,109.3z"></path>
	<path class="st1" d="M217,114.1c-5.7,0.9-10.8-0.5-14-2.6c-0.5-0.3-0.9-0.1-0.8,0.5c0.2,1.5,3.4,5.5,8.2,5.5c2.7,0,5.9-1.3,6.9-2.8   C217.7,114.2,217.5,114,217,114.1z"></path>
	<g>
		<path class="st0" d="M177.8,126c2.5-0.5,2.7-4,4-5.3c0.7-0.7,2-0.8,2.8-0.5c0,0,0.5-1.3,0.7-3.6c0.5-6.8-3.9-13.5-8.3-18.4    c-4.9,4.4-9.8,10.7-10.1,17.5c-0.2,4.4,1.6,8,5,9.5c0.3,0.1,1.4,0.5,2.3,0.7C175.2,126.2,176.5,126.2,177.8,126z"></path>
		<path class="st2" d="M174.5,122.7c0,0.5,0.4,1,1,0.9c0.4,0,0.8-0.4,0.8-0.8l0.2-2.9c1.9,0.1,4.5-0.7,5.6-1.8    c0.3-0.3,0.5-0.9,0.1-1.3c-0.3-0.4-0.9-0.5-1.3-0.1c-0.5,0.4-1.9,1.3-4.3,1.4l0.3-4.5c1.3,0,3.1-0.5,4.1-1.3    c0.3-0.2,0.4-0.5,0.4-0.8c0-0.5-0.4-0.8-0.9-0.8c-0.6,0-1.2,0.9-3.4,1c0.2-2.1,0.3-4.2,0.4-6.5c0-0.5-0.4-0.9-0.8-0.9    c-0.5,0-0.9,0.4-1,0.8c-0.1,2.3-0.2,4.5-0.4,6.6c-1-0.1-2.3-0.6-3.1-1.1c-0.4-0.3-1-0.1-1.2,0.3c-0.2,0.4-0.1,0.9,0.3,1.2    c0.7,0.5,2.7,1.3,3.9,1.4l-0.3,4.5c-1.4-0.3-2.9-1-4.2-1.8c-0.4-0.3-1-0.2-1.2,0.3c-0.3,0.4-0.1,0.9,0.3,1.2    c1,0.8,3.4,1.9,5.1,2.1L174.5,122.7z"></path>
	</g>
	<path class="st2" d="M209.9,131c-2.1,0-4.1-0.8-5.3-1.9l1.3-5c3.2,1.2,7,1.2,8.6,1l0.3,4.6C213.5,130.5,211.8,131,209.9,131z"></path>
	<path class="st2" d="M231.9,158l-0.4-8.8c-2.5,0.8-4.8,1.2-7.9,1.3l0.4,8.3l8.3-0.4C232,158.4,231.9,158.1,231.9,158z"></path>
	<path class="st2" d="M188.3,134.7c-3.4,1.7-4.3,2.7-5.3,2.7c-0.7,0-0.9-0.6-1.2-1.6c-0.6-2.1-1.4-5-1.4-6c0-1.6,1.8-2.6,2.3-4   c0.2-0.6,0.8-3.1,0.8-3.9c-0.1-2.3-1.7-1.3-1.7-1.3c-1.3,1.3-1.5,4.8-4,5.3c-1.3,0.3-2.6,0.2-3.7-0.1c0,0,0,0,0,0   c0.3,0.9,1,2.1,2,3c0.7,0.6,0.8,1.1,1,2.5c0.4,3.1,1.3,10.5,1.6,12.3c0.2,1.2,0.3,1.6,0.8,1.6c1.1,0,6-1.7,9.5-3.1   C188.9,139.7,188.6,137.2,188.3,134.7z"></path>
</g>
</svg>
