<svg width="918" height="639" viewBox="0 0 918 639" fill="none" xmlns="http://www.w3.org/2000/svg">
<path d="M401.643 48.6848C391.696 62.3156 372.645 65.2629 359.014 55.316C345.383 45.3692 342.436 26.3176 352.383 12.6868C362.33 -0.94408 381.381 -3.89131 395.012 6.05552C408.59 16.0024 411.537 35.1066 401.643 48.6848Z" fill="#522774" fill-opacity="0.6"/>
<path d="M586.844 48.6848C576.897 62.3156 557.845 65.2629 544.215 55.316C530.584 45.3692 527.637 26.3176 537.583 12.6868C547.53 -0.94408 566.582 -3.89131 580.213 6.05552C593.843 16.0024 596.791 35.1066 586.844 48.6848Z" fill="#522774" fill-opacity="0.8"/>
<path d="M216.39 122.681C206.443 136.312 187.391 139.259 173.76 129.312C160.13 119.365 157.182 100.314 167.129 86.6828C177.076 73.052 196.128 70.1048 209.759 80.0516C223.337 89.9985 226.337 109.103 216.39 122.681Z" fill="#522774" fill-opacity="0.4"/>
<path d="M772.097 122.681C762.15 136.312 743.098 139.259 729.468 129.312C715.837 119.365 712.889 100.314 722.836 86.6828C732.783 73.052 751.835 70.1048 765.466 80.0516C779.044 89.9985 782.044 109.103 772.097 122.681Z" fill="#522774"/>
<path d="M61.3984 452.505H11.98C7.76972 452.505 4.66464 451.61 2.71737 449.874C0.927997 447.874 0.0859375 444.769 0.0859375 440.558V225.57C0.0859375 221.36 0.980626 218.36 2.71737 216.623C4.71727 214.623 7.82235 213.623 11.98 213.623H65.3456C68.8717 213.623 71.7663 214.413 73.9767 215.939C76.3976 217.465 78.608 220.044 80.6079 223.57L110.448 277.672C111.554 279.672 112.448 281.093 113.08 281.988C113.975 282.883 115.08 283.304 116.395 283.304H119.395C120.711 283.304 121.711 282.883 122.395 281.988C123.29 281.093 124.29 279.672 125.395 277.672L154.92 223.57C156.92 220.044 159.025 217.465 161.235 215.939C163.656 214.413 166.656 213.623 170.182 213.623H223.916C228.126 213.623 231.126 214.623 232.863 216.623C234.863 218.413 235.863 221.36 235.863 225.57V440.558C235.863 444.769 234.863 447.874 232.863 449.874C231.073 451.663 228.126 452.505 223.916 452.505H172.813C168.603 452.505 165.498 451.61 163.551 449.874C161.761 447.874 160.919 444.769 160.919 440.558V323.775L141.341 359.931C139.342 363.668 136.921 366.457 134.026 368.247C131.395 369.773 127.921 370.562 123.763 370.562H110.501C106.291 370.562 102.765 369.773 99.87 368.247C97.2386 366.457 94.8703 363.72 92.923 359.931L73.3451 323.775V440.558C73.3451 444.769 72.3452 447.874 70.3453 449.874C68.5559 451.663 65.5561 452.505 61.3984 452.505Z" fill="#522774"/>
<path d="M288.175 452.505C283.965 452.505 280.86 451.61 278.913 449.874C277.123 447.874 276.281 444.769 276.281 440.558V401.087C276.281 396.876 277.176 393.877 278.913 392.14C280.913 390.14 284.018 389.14 288.175 389.14H321.016V277.672H288.175C283.965 277.672 280.86 276.778 278.913 275.041C277.123 273.041 276.281 269.936 276.281 265.726V225.57C276.281 221.36 277.176 218.36 278.913 216.623C280.913 214.623 284.018 213.623 288.175 213.623H429.483C433.694 213.623 436.694 214.623 438.43 216.623C440.43 218.413 441.43 221.36 441.43 225.57V265.726C441.43 269.936 440.43 273.041 438.43 275.041C436.641 276.83 433.694 277.672 429.483 277.672H397.327V389.14H429.483C433.694 389.14 436.694 390.14 438.43 392.14C440.43 393.929 441.43 396.876 441.43 401.087V440.558C441.43 444.769 440.43 447.874 438.43 449.874C436.641 451.663 433.694 452.505 429.483 452.505H288.175Z" fill="#522774"/>
<path d="M544.056 452.505H494.322C490.112 452.505 487.007 451.61 485.06 449.874C483.27 447.874 482.428 444.769 482.428 440.558V225.57C482.428 221.36 483.323 218.36 485.06 216.623C487.06 214.623 490.165 213.623 494.322 213.623H528.847C533.057 213.623 536.583 214.307 539.478 215.623C542.583 216.939 545.583 219.255 548.425 222.57L612.79 296.25V225.57C612.79 221.36 613.684 218.36 615.421 216.623C617.421 214.623 620.526 213.623 624.684 213.623H674.418C678.628 213.623 681.628 214.623 683.365 216.623C685.365 218.413 686.365 221.36 686.365 225.57V440.558C686.365 444.769 685.365 447.874 683.365 449.874C681.575 451.663 678.628 452.505 674.418 452.505H624.684C620.473 452.505 617.368 451.61 615.421 449.874C613.632 447.874 612.79 444.769 612.79 440.558V399.771L556.056 331.091V440.558C556.056 444.769 555.056 447.874 553.056 449.874C551.267 451.663 548.267 452.505 544.056 452.505Z" fill="#522774"/>
<path d="M844.935 452.505H791.201C786.991 452.505 783.886 451.61 781.938 449.874C780.149 447.874 779.307 444.769 779.307 440.558V277.672H730.573C726.362 277.672 723.257 276.778 721.31 275.041C719.521 273.041 718.679 269.936 718.679 265.726V225.57C718.679 221.36 719.573 218.36 721.31 216.623C723.31 214.623 726.415 213.623 730.573 213.623H905.721C909.932 213.623 912.931 214.623 914.668 216.623C916.668 218.413 917.668 221.36 917.668 225.57V265.726C917.668 269.936 916.668 273.041 914.668 275.041C912.879 276.83 909.932 277.672 905.721 277.672H856.882V440.558C856.882 444.769 855.882 447.874 853.882 449.874C852.145 451.663 849.145 452.505 844.935 452.505Z" fill="#522774"/>
<path d="M212.917 638.6C203.917 638.6 195.497 636.653 187.813 632.706C180.182 628.706 174.077 622.654 169.393 614.601C164.709 606.549 162.393 596.497 162.393 584.445C162.393 575.551 163.761 567.657 166.445 560.815C169.287 553.868 173.077 547.973 177.866 543.184C182.76 538.395 188.234 534.816 194.339 532.395C200.549 529.869 206.97 528.659 213.601 528.659C220.653 528.659 226.968 530.08 232.495 532.922C238.126 535.658 242.81 538.921 246.494 542.711L231.81 560.657C229.179 558.394 226.495 556.499 223.653 555.131C220.916 553.605 217.758 552.868 214.18 552.868C210.022 552.868 206.18 554.131 202.601 556.605C199.128 559.025 196.286 562.499 194.128 567.025C192.076 571.604 191.023 577.077 191.023 583.498C191.023 593.392 193.076 601.076 197.233 606.497C201.496 611.812 207.022 614.496 213.864 614.496C218.022 614.496 221.653 613.601 224.811 611.707C228.074 609.865 230.863 607.76 233.126 605.339L247.809 622.969C243.336 628.18 238.126 632.074 232.179 634.706C226.179 637.284 219.758 638.6 212.917 638.6Z" fill="#522774"/>
<path d="M294.754 585.077L292.965 592.392H312.543L310.753 585.077C309.438 579.972 308.122 574.393 306.859 568.446C305.543 562.446 304.227 556.815 302.964 551.5H302.333C301.228 556.815 300.07 562.499 298.754 568.446C297.386 574.446 296.07 579.972 294.754 585.077ZM254.02 636.6L286.334 530.553H320.279L352.593 636.6H322.911L317.7 614.075H288.018L282.807 636.6H254.02Z" fill="#522774"/>
<path d="M367.487 636.6V530.553H397.486L413.485 573.919C414.485 576.867 415.379 579.919 416.274 583.077C417.169 586.235 418.064 589.392 419.063 592.55H419.695C420.695 589.392 421.59 586.235 422.484 583.077C423.379 579.919 424.274 576.867 425.274 573.919L440.589 530.553H470.587V636.6H445.167V605.286C445.167 601.707 445.378 597.655 445.799 593.234C446.22 588.656 446.746 584.077 447.272 579.551C447.799 574.972 448.325 570.972 448.746 567.499H448.115L439.326 592.918L426.274 627.969H411.274L398.222 592.918L389.749 567.499H389.118C389.539 570.972 390.065 574.972 390.591 579.551C391.118 584.129 391.644 588.708 392.065 593.234C392.486 597.708 392.696 601.707 392.696 605.286V636.6H367.487Z" fill="#522774"/>
<path d="M499.006 636.6V530.553H537.846C545.583 530.553 552.688 531.659 559.214 533.816C565.74 535.974 570.95 539.658 574.844 544.763C578.844 549.868 580.897 556.868 580.897 565.815C580.897 574.393 578.897 581.498 574.844 587.024C570.95 592.445 565.687 596.497 559.214 599.076C552.793 601.707 545.899 602.971 538.478 602.971H527.057V636.548H499.006V636.6ZM527.057 580.814H537.162C542.688 580.814 546.793 579.498 549.372 576.919C552.109 574.183 553.424 570.499 553.424 565.815C553.424 561.025 551.951 557.657 549.004 555.71C546.056 553.763 541.899 552.763 536.425 552.763H526.952V580.814H527.057Z" fill="#522774"/>
<path d="M640.314 638.6C625.526 638.6 614.474 634.232 607.211 625.548C599.948 616.865 596.264 603.497 596.264 585.445V530.659H624.315V588.708C624.315 598.181 625.578 604.865 628.052 608.76C630.683 612.549 634.736 614.444 640.262 614.444C645.788 614.444 649.893 612.549 652.472 608.76C655.208 604.865 656.577 598.181 656.577 588.708V530.659H683.628V585.445C683.628 603.497 680.102 616.865 673.049 625.548C666.102 634.232 655.208 638.6 640.314 638.6Z" fill="#522774"/>
<path d="M737.625 638.6C730.994 638.6 724.099 637.337 716.889 634.863C709.732 632.39 703.258 628.548 697.469 623.443L713.468 604.181C717.258 607.233 721.363 609.707 725.678 611.707C730.152 613.549 734.309 614.496 738.257 614.496C742.519 614.496 745.519 613.865 747.361 612.549C749.309 611.233 750.308 609.391 750.308 607.023C750.308 604.497 748.993 602.602 746.414 601.286C743.94 599.971 740.414 598.444 735.994 596.708L722.784 591.182C717.152 588.919 712.153 585.287 707.784 580.393C703.522 575.498 701.416 569.235 701.416 561.657C701.416 555.552 703.1 550.079 706.469 545.184C709.837 540.184 714.468 536.237 720.31 533.29C726.31 530.238 733.152 528.711 740.835 528.711C746.94 528.711 753.045 529.922 759.255 532.29C765.571 534.553 771.149 538.079 776.044 542.868L761.992 560.499C758.413 558.026 754.94 556.078 751.572 554.763C748.309 553.447 744.73 552.815 740.783 552.815C737.414 552.815 734.678 553.394 732.625 554.605C730.678 555.815 729.678 557.604 729.678 559.973C729.678 562.446 731.099 564.446 733.941 565.867C736.783 567.183 740.572 568.762 745.361 570.604L758.255 575.656C764.887 578.288 769.992 581.919 773.57 586.603C777.149 591.287 778.939 597.339 778.939 604.707C778.939 610.707 777.307 616.286 774.044 621.496C770.886 626.601 766.202 630.758 759.992 633.916C753.94 637.021 746.414 638.6 737.625 638.6Z" fill="#522774"/>
</svg>
